<svg aria-hidden="true" style="position: absolute; width: 0; height: 0; overflow: hidden;" version="1.1" xmlns="http://www.w3.org/2000/svg" xmlns:xlink="http://www.w3.org/1999/xlink">
<defs>
<symbol id="mail-icon" viewBox="0 0 32 32">
<title>mail</title>
<path d="M15.996 15.457l16.004-7.539v-3.918h-32v3.906zM16.004 19.879l-16.004-7.559v15.68h32v-15.656z"></path>
</symbol>
<symbol id="add-icon" viewBox="0 0 32 32">
<title>add</title>
<path d="M16 32c-8.836 0-16-7.163-16-16s7.164-16 16-16c8.837 0 16 7.163 16 16s-7.163 16-16 16zM16 4c-6.627 0-12 5.373-12 12s5.373 12 12 12c6.628 0 12-5.373 12-12s-5.372-12-12-12zM18 24h-4v-6h-6v-4h6v-6h4v6h6v4h-6v6z"></path>
</symbol>
<symbol id="eye-icon" viewBox="0 0 32 32">
<title>eye</title>
<path d="M16 6c-8.837 0-16 10-16 10s7.163 10 16 10 16-10 16-10-7.163-10-16-10zM16 22c-3.313 0-6-2.687-6-6s2.687-6 6-6 6 2.687 6 6-2.687 6-6 6zM16 12c-2.209 0-4 1.791-4 4s1.791 4 4 4 4-1.791 4-4-1.791-4-4-4z"></path>
</symbol>
<symbol id="phone-icon" viewBox="0 0 32 32">
<title>phone</title>
<path d="M2.126 1.188c1.278-1.281 5.141-1.495 5.17-0.817 0.029 0.677 3.479 8.191 3.509 8.869s-2.274 2.987-2.948 3.663c-0.668 0.669 4.508 6.533 4.606 6.644 0.11 0.099 5.96 5.287 6.628 4.617 0.674-0.676 2.979-2.985 3.653-2.955 0.676 0.029 8.173 3.487 8.849 3.518 0.676 0.029 0.463 3.9-0.815 5.182-1.093 1.095-6.752 5.071-16.592-2.029-1.079-0.622-2.788-2.049-5.38-4.646-0.001-0.001-0.003-0.003-0.005-0.004-0.002-0.003-0.004-0.004-0.006-0.006s-0.004-0.004-0.006-0.006c-0.001-0.002-0.003-0.004-0.004-0.005-2.59-2.598-4.014-4.312-4.635-5.393-7.083-9.864-3.116-15.537-2.024-16.632z"></path>
</symbol>
<symbol id="user-icon" viewBox="0 0 32 32">
<title>user</title>
<path d="M18 22.082v-1.649c2.203-1.241 4-4.337 4-7.432 0-4.971 0-9-6-9s-6 4.029-6 9c0 3.096 1.797 6.191 4 7.432v1.649c-6.784 0.555-12 3.888-12 7.918h28c0-4.030-5.216-7.364-12-7.918z"></path>
</symbol>
<symbol id="camera1-icon" viewBox="0 0 32 32">
<title>camera1</title>
<path d="M28 8h-5.938c0 0-0.062-0.119-0.062-1.5s-1.119-2.5-2.5-2.5h-8c-1.381 0-2.5 1.119-2.5 2.5s0.062 1.5 0.062 1.5h-6.062c-1.104 0-2 0.896-2 2v16c0 1.104 0.896 2 2 2h25c1.104 0 2-0.896 2-2v-16c0-1.104-0.896-2-2-2zM15.545 23.973c-3.314 0-6-2.686-6-6s2.686-6 6-6c3.313 0 6 2.686 6 6s-2.687 6-6 6z"></path>
</symbol>
<symbol id="clock-icon" viewBox="0 0 32 32">
<title>clock</title>
<path d="M16 3.5c-7.181 0-13 5.82-13 13s5.819 13 13 13c7.179 0 13-5.82 13-13s-5.82-13-13-13zM15.895 27.027c-5.799 0-10.5-4.701-10.5-10.5s4.701-10.5 10.5-10.5c5.798 0 10.5 4.701 10.5 10.5s-4.702 10.5-10.5 10.5zM18.93 17.131h-2.98v-5.032c0-0.546-0.443-0.99-0.989-0.99s-0.99 0.443-0.99 0.99v6.021c0 0.547 0.443 0.989 0.99 0.989h3.969c0.547 0 0.99-0.442 0.99-0.989 0-0.546-0.443-0.989-0.99-0.989z"></path>
</symbol>
<symbol id="heart2-icon" viewBox="0 0 32 32">
<title>heart2</title>
<path d="M16.042 8.345c0 0-2-4.262-6.5-4.262-4.917 0-7.5 4.167-7.5 8.333 0 6.917 14 15.5 14 15.5s13.916-8.5 13.916-15.5c0-4.25-2.666-8.333-7.416-8.333s-6.5 4.262-6.5 4.262z"></path>
</symbol>
<symbol id="article-icon" viewBox="0 0 32 32">
<title>article</title>
<path d="M19 3v6.002c0 1.111 0.898 1.998 2.006 1.998h4.994v17.003c0 1.107-0.894 1.997-1.997 1.997h-15.005c-1.107 0-1.997-0.899-1.997-2.007v-22.985c0-1.109 0.899-2.007 2.009-2.007h9.991zM20 3v5.997c0 0.554 0.451 1.003 0.991 1.003h5.009l-6-7zM10 10v1h7v-1h-7zM10 7v1h7v-1h-7zM10 13v1h13v-1h-13zM10 16v1h13v-1h-13zM10 19v1h13v-1h-13zM10 22v1h13v-1h-13zM10 25v1h13v-1h-13z"></path>
</symbol>
<symbol id="post-icon" viewBox="0 0 32 32">
<title>post</title>
<path d="M28.748 7.091l-3.839-3.839c-0.391-0.391-0.903-0.585-1.415-0.585-0.513 0-1.024 0.195-1.415 0.585l-4.747 4.748h-12c-0.736 0-1.333 0.596-1.333 1.333v17.333c0 0.737 0.597 1.333 1.333 1.333h17.333c0.736 0 1.333-0.596 1.333-1.333v-12l4.748-4.748c0.391-0.391 0.585-0.903 0.585-1.415s-0.195-1.023-0.585-1.413zM15.333 19.563l-2.896-2.896 8.391-8.391 2.896 2.896-8.391 8.391zM11.919 17.777l2.341 2.304-2.26-0.081-0.081-2.223zM21.333 25.333h-14.667v-14.667h8l-4.24 4.24c-0.391 0.391-0.637 1.083-0.839 1.719-0.213 0.667-0.255 1.408-0.255 1.96v4.081h4.081c0.552 0 1.477-0.133 2.095-0.387 0.619-0.253 1.195-0.463 1.584-0.853l4.24-4.093v8zM24.667 10.229l-2.896-2.896 1.724-1.724 2.895 2.896-1.723 1.724z"></path>
</symbol>
<symbol id="quote-icon" viewBox="0 0 32 32">
<title>quote</title>
<path d="M18.688 22.688l2.625-5.375h-4v-8h8v8l-2.625 5.375h-4zM8 22.688l2.688-5.375h-4v-8h8v8l-2.688 5.375h-4z"></path>
</symbol>
<symbol id="people-icon" viewBox="0 0 32 32">
<title>people</title>
<path d="M21.313 17.313c3.125 0 9.375 1.563 9.375 4.688v3.313h-8v-3.313c0-2-1.063-3.5-2.625-4.625 0.438-0.063 0.875-0.063 1.25-0.063zM10.688 17.313c3.125 0 9.313 1.563 9.313 4.688v3.313h-18.688v-3.313c0-3.125 6.25-4.688 9.375-4.688zM10.688 14.688c-2.188 0-4-1.813-4-4s1.813-4 4-4 3.938 1.813 3.938 4-1.75 4-3.938 4zM21.313 14.688c-2.188 0-4-1.813-4-4s1.813-4 4-4 4 1.813 4 4-1.813 4-4 4z"></path>
</symbol>
<symbol id="home-icon" viewBox="0 0 32 32">
<title>home</title>
<path d="M13.313 26.688h-6.625v-10.688h-4l13.313-12 13.313 12h-4v10.688h-6.625v-8h-5.375v8z"></path>
</symbol>
<symbol id="search-icon" viewBox="0 0 32 32">
<title>search</title>
<path d="M12.688 18.688c3.313 0 6-2.688 6-6s-2.688-6-6-6-6 2.688-6 6 2.688 6 6 6zM20.688 18.688l6.625 6.625-2 2-6.625-6.625v-1.063l-0.375-0.375c-1.5 1.313-3.5 2.063-5.625 2.063-4.813 0-8.688-3.813-8.688-8.625s3.875-8.688 8.688-8.688 8.625 3.875 8.625 8.688c0 2.125-0.75 4.125-2.063 5.625l0.375 0.375h1.063z"></path>
</symbol>
<symbol id="camera2-icon" viewBox="0 0 32 32">
<title>camera2</title>
<path d="M32 6.286v19.429c0 0.464-0.286 0.875-0.696 1.054-0.143 0.054-0.304 0.089-0.446 0.089-0.304 0-0.589-0.107-0.804-0.339l-7.196-7.196v2.964c0 2.839-2.304 5.143-5.143 5.143h-12.571c-2.839 0-5.143-2.304-5.143-5.143v-12.571c0-2.839 2.304-5.143 5.143-5.143h12.571c2.839 0 5.143 2.304 5.143 5.143v2.946l7.196-7.179c0.214-0.232 0.5-0.339 0.804-0.339 0.143 0 0.304 0.036 0.446 0.089 0.411 0.179 0.696 0.589 0.696 1.054z"></path>
</symbol>
<symbol id="location-icon" viewBox="0 0 18 32">
<title>location</title>
<path d="M13.714 11.429c0-2.518-2.054-4.571-4.571-4.571s-4.571 2.054-4.571 4.571 2.054 4.571 4.571 4.571 4.571-2.054 4.571-4.571zM18.286 11.429c0 1.089-0.125 2.214-0.589 3.196l-6.5 13.821c-0.375 0.786-1.196 1.268-2.054 1.268s-1.679-0.482-2.036-1.268l-6.518-13.821c-0.464-0.982-0.589-2.107-0.589-3.196 0-5.054 4.089-9.143 9.143-9.143s9.143 4.089 9.143 9.143z"></path>
</symbol>
<symbol id="share-icon" viewBox="0 0 30 32">
<title>share</title>
<path d="M25.143 17.661v4.625c0 2.839-2.304 5.143-5.143 5.143h-14.857c-2.839 0-5.143-2.304-5.143-5.143v-14.857c0-2.839 2.304-5.143 5.143-5.143h4.554c0.304 0 0.571 0.25 0.571 0.571 0 0.286-0.196 0.518-0.464 0.571-0.893 0.304-1.696 0.661-2.375 1.071-0.089 0.036-0.179 0.071-0.286 0.071h-2c-1.571 0-2.857 1.286-2.857 2.857v14.857c0 1.571 1.286 2.857 2.857 2.857h14.857c1.571 0 2.857-1.286 2.857-2.857v-3.821c0-0.214 0.125-0.411 0.321-0.518 0.357-0.161 0.679-0.393 0.964-0.661 0.161-0.161 0.411-0.232 0.625-0.143s0.375 0.286 0.375 0.518zM29.375 8.804l-6.857 6.857c-0.214 0.232-0.5 0.339-0.804 0.339-0.143 0-0.304-0.036-0.446-0.089-0.411-0.179-0.696-0.589-0.696-1.054v-3.429h-2.857c-3.929 0-6.429 0.75-7.821 2.339-1.446 1.661-1.875 4.339-1.321 8.446 0.036 0.25-0.125 0.5-0.357 0.607-0.071 0.018-0.143 0.036-0.214 0.036-0.179 0-0.357-0.089-0.464-0.232-0.125-0.179-2.964-4.196-2.964-7.768 0-4.786 1.5-10.286 13.143-10.286h2.857v-3.429c0-0.464 0.286-0.875 0.696-1.054 0.143-0.054 0.304-0.089 0.446-0.089 0.304 0 0.589 0.125 0.804 0.339l6.857 6.857c0.446 0.446 0.446 1.161 0 1.607z"></path>
</symbol>
<symbol id="play-icon" viewBox="0 0 25 32">
<title>play</title>
<path d="M24.714 16.554l-23.714 13.179c-0.554 0.304-1 0.036-1-0.589v-26.286c0-0.625 0.446-0.893 1-0.589l23.714 13.179c0.554 0.304 0.554 0.804 0 1.107z"></path>
</symbol>
<symbol id="check-icon" viewBox="0 0 27 32">
<title>check</title>
<path d="M22.929 13.107c0-0.304-0.107-0.607-0.321-0.821l-1.625-1.607c-0.214-0.214-0.5-0.339-0.804-0.339s-0.589 0.125-0.804 0.339l-7.286 7.268-4.036-4.036c-0.214-0.214-0.5-0.339-0.804-0.339s-0.589 0.125-0.804 0.339l-1.625 1.607c-0.214 0.214-0.321 0.518-0.321 0.821s0.107 0.589 0.321 0.804l6.464 6.464c0.214 0.214 0.518 0.339 0.804 0.339 0.304 0 0.607-0.125 0.821-0.339l9.696-9.696c0.214-0.214 0.321-0.5 0.321-0.804zM27.429 16c0 7.571-6.143 13.714-13.714 13.714s-13.714-6.143-13.714-13.714 6.143-13.714 13.714-13.714 13.714 6.143 13.714 13.714z"></path>
</symbol>
<symbol id="comment-icon" viewBox="0 0 32 32">
<title>comment</title>
<path d="M32 16c0 6.321-7.161 11.429-16 11.429-0.875 0-1.75-0.054-2.589-0.143-2.339 2.071-5.125 3.536-8.214 4.321-0.643 0.179-1.339 0.304-2.036 0.393-0.393 0.036-0.768-0.25-0.857-0.679v-0.018c-0.089-0.446 0.214-0.714 0.482-1.036 1.125-1.268 2.411-2.339 3.25-5.321-3.679-2.089-6.036-5.321-6.036-8.946 0-6.304 7.161-11.429 16-11.429s16 5.107 16 11.429z"></path>
</symbol>
<symbol id="cart-icon" viewBox="0 0 30 32">
<title>cart</title>
<path d="M11.429 27.429c0 1.25-1.036 2.286-2.286 2.286s-2.286-1.036-2.286-2.286 1.036-2.286 2.286-2.286 2.286 1.036 2.286 2.286zM27.429 27.429c0 1.25-1.036 2.286-2.286 2.286s-2.286-1.036-2.286-2.286 1.036-2.286 2.286-2.286 2.286 1.036 2.286 2.286zM29.714 8v9.143c0 0.571-0.446 1.071-1.018 1.143l-18.643 2.179c0.089 0.411 0.232 0.821 0.232 1.25 0 0.411-0.25 0.786-0.429 1.143h16.429c0.625 0 1.143 0.518 1.143 1.143s-0.518 1.143-1.143 1.143h-18.286c-0.625 0-1.143-0.518-1.143-1.143 0-0.554 0.804-1.893 1.089-2.446l-3.161-14.696h-3.643c-0.625 0-1.143-0.518-1.143-1.143s0.518-1.143 1.143-1.143h4.571c1.196 0 1.232 1.429 1.411 2.286h21.446c0.625 0 1.143 0.518 1.143 1.143z"></path>
</symbol>
<symbol id="heart1-icon" viewBox="0 0 32 32">
<title>heart1</title>
<path d="M29.714 10.643c0-5.018-3.393-6.071-6.25-6.071-2.661 0-5.661 2.875-6.589 3.982-0.429 0.518-1.321 0.518-1.75 0-0.929-1.107-3.929-3.982-6.589-3.982-2.857 0-6.25 1.054-6.25 6.071 0 3.268 3.304 6.304 3.339 6.339l10.375 10 10.357-9.982c0.054-0.054 3.357-3.089 3.357-6.357zM32 10.643c0 4.286-3.929 7.875-4.089 8.036l-11.125 10.714c-0.214 0.214-0.5 0.321-0.786 0.321s-0.571-0.107-0.786-0.321l-11.143-10.75c-0.143-0.125-4.071-3.714-4.071-8 0-5.232 3.196-8.357 8.536-8.357 3.125 0 6.054 2.464 7.464 3.857 1.411-1.393 4.339-3.857 7.464-3.857 5.339 0 8.536 3.125 8.536 8.357z"></path>
</symbol>
<symbol id="trophy-icon" viewBox="0 0 30 32">
<title>trophy</title>
<path d="M8.179 15.768c-0.75-1.643-1.321-3.821-1.321-6.625h-4.571v1.714c0 1.75 2.375 4.179 5.893 4.911zM27.429 10.857v-1.714h-4.571c0 2.804-0.571 4.982-1.321 6.625 3.518-0.732 5.893-3.161 5.893-4.911zM29.714 8.571v2.286c0 3.393-4.107 7.143-9.679 7.411-0.714 0.911-1.375 1.446-1.696 1.696-0.946 0.857-1.196 1.75-1.196 2.893s0.571 2.286 2.286 2.286 3.429 1.143 3.429 2.857v1.143c0 0.321-0.25 0.571-0.571 0.571h-14.857c-0.321 0-0.571-0.25-0.571-0.571v-1.143c0-1.714 1.714-2.857 3.429-2.857s2.286-1.143 2.286-2.286-0.25-2.036-1.196-2.893c-0.321-0.25-0.982-0.786-1.696-1.696-5.571-0.268-9.679-4.018-9.679-7.411v-2.286c0-0.946 0.768-1.714 1.714-1.714h5.143v-1.714c0-1.571 1.286-2.857 2.857-2.857h10.286c1.571 0 2.857 1.286 2.857 2.857v1.714h5.143c0.946 0 1.714 0.768 1.714 1.714z"></path>
</symbol>
<symbol id="twitter-icon" viewBox="0 0 30 32">
<title>twitter</title>
<path d="M28.929 7.286c-0.786 1.143-1.768 2.161-2.893 2.982 0.018 0.25 0.018 0.5 0.018 0.75 0 7.625-5.804 16.411-16.411 16.411-3.268 0-6.304-0.946-8.857-2.589 0.464 0.054 0.911 0.071 1.393 0.071 2.696 0 5.179-0.911 7.161-2.464-2.536-0.054-4.661-1.714-5.393-4 0.357 0.054 0.714 0.089 1.089 0.089 0.518 0 1.036-0.071 1.518-0.196-2.643-0.536-4.625-2.857-4.625-5.661v-0.071c0.768 0.429 1.661 0.696 2.607 0.732-1.554-1.036-2.571-2.804-2.571-4.804 0-1.071 0.286-2.054 0.786-2.911 2.839 3.5 7.107 5.786 11.893 6.036-0.089-0.429-0.143-0.875-0.143-1.321 0-3.179 2.571-5.768 5.768-5.768 1.661 0 3.161 0.696 4.214 1.821 1.304-0.25 2.554-0.732 3.661-1.393-0.429 1.339-1.339 2.464-2.536 3.179 1.161-0.125 2.286-0.446 3.321-0.893z"></path>
</symbol>
<symbol id="facebook-icon" viewBox="0 0 19 32">
<title>facebook</title>
<path d="M17.125 0.214v4.714h-2.804c-2.196 0-2.607 1.054-2.607 2.571v3.375h5.232l-0.696 5.286h-4.536v13.554h-5.464v-13.554h-4.554v-5.286h4.554v-3.893c0-4.518 2.768-6.982 6.804-6.982 1.929 0 3.589 0.143 4.071 0.214z"></path>
</symbol>
<symbol id="rss-icon" viewBox="0 0 25 32">
<title>rss</title>
<path d="M6.857 24c0 1.893-1.536 3.429-3.429 3.429s-3.429-1.536-3.429-3.429 1.536-3.429 3.429-3.429 3.429 1.536 3.429 3.429zM16 26.196c0.018 0.321-0.089 0.625-0.304 0.857-0.214 0.25-0.518 0.375-0.839 0.375h-2.411c-0.589 0-1.071-0.446-1.125-1.036-0.518-5.446-4.839-9.768-10.286-10.286-0.589-0.054-1.036-0.536-1.036-1.125v-2.411c0-0.321 0.125-0.625 0.375-0.839 0.196-0.196 0.482-0.304 0.768-0.304h0.089c3.804 0.304 7.393 1.964 10.089 4.679 2.714 2.696 4.375 6.286 4.679 10.089zM25.143 26.232c0.018 0.304-0.089 0.607-0.321 0.839-0.214 0.232-0.5 0.357-0.821 0.357h-2.554c-0.607 0-1.107-0.464-1.143-1.071-0.589-10.375-8.857-18.643-19.232-19.25-0.607-0.036-1.071-0.536-1.071-1.125v-2.554c0-0.321 0.125-0.607 0.357-0.821 0.214-0.214 0.5-0.321 0.786-0.321h0.054c6.25 0.321 12.125 2.946 16.554 7.393 4.446 4.429 7.071 10.304 7.393 16.554z"></path>
</symbol>
<symbol id="linkedin-icon" viewBox="0 0 27 32">
<title>linkedin</title>
<path d="M6.232 11.161v17.696h-5.893v-17.696h5.893zM6.607 5.696c0.018 1.696-1.268 3.054-3.321 3.054v0h-0.036c-1.982 0-3.25-1.357-3.25-3.054 0-1.732 1.321-3.054 3.321-3.054 2.018 0 3.268 1.321 3.286 3.054zM27.429 18.714v10.143h-5.875v-9.464c0-2.375-0.857-4-2.982-4-1.625 0-2.589 1.089-3.018 2.143-0.143 0.393-0.196 0.911-0.196 1.446v9.875h-5.875c0.071-16.036 0-17.696 0-17.696h5.875v2.571h-0.036c0.768-1.214 2.161-2.982 5.339-2.982 3.875 0 6.768 2.536 6.768 7.964z"></path>
</symbol>
<symbol id="right-icon" viewBox="0 0 27 32">
<title>right</title>
<path d="M12.804 24.911l8.107-8.107c0.446-0.446 0.446-1.161 0-1.607l-8.107-8.107c-0.446-0.446-1.161-0.446-1.607 0l-1.821 1.821c-0.446 0.446-0.446 1.161 0 1.607l5.482 5.482-5.482 5.482c-0.446 0.446-0.446 1.161 0 1.607l1.821 1.821c0.446 0.446 1.161 0.446 1.607 0zM27.429 16c0 7.571-6.143 13.714-13.714 13.714s-13.714-6.143-13.714-13.714 6.143-13.714 13.714-13.714 13.714 6.143 13.714 13.714z"></path>
</symbol>
<symbol id="pinterest-icon" viewBox="0 0 23 32">
<title>pinterest</title>
<path d="M0 10.661c0-6.589 6.036-10.661 12.143-10.661 5.607 0 10.714 3.857 10.714 9.768 0 5.554-2.839 11.714-9.161 11.714-1.5 0-3.393-0.75-4.125-2.143-1.357 5.375-1.25 6.179-4.25 10.286l-0.25 0.089-0.161-0.179c-0.107-1.125-0.268-2.232-0.268-3.357 0-3.643 1.679-8.911 2.5-12.446-0.446-0.911-0.571-2.018-0.571-3.018 0-1.804 1.25-4.089 3.286-4.089 1.5 0 2.304 1.143 2.304 2.554 0 2.321-1.571 4.5-1.571 6.75 0 1.536 1.268 2.607 2.75 2.607 4.107 0 5.375-5.929 5.375-9.089 0-4.232-3-6.536-7.054-6.536-4.714 0-8.357 3.393-8.357 8.179 0 2.304 1.411 3.482 1.411 4.036 0 0.464-0.339 2.107-0.929 2.107-0.089 0-0.214-0.036-0.304-0.054-2.554-0.768-3.482-4.179-3.482-6.518z"></path>
</symbol>
<symbol id="menu-icon" viewBox="0 0 32 32">
<title>menu</title>
<path d="M4 17.333h24c0.736 0 1.333-0.597 1.333-1.333s-0.597-1.333-1.333-1.333h-24c-0.736 0-1.333 0.597-1.333 1.333s0.597 1.333 1.333 1.333zM4 9.333h24c0.736 0 1.333-0.597 1.333-1.333s-0.597-1.333-1.333-1.333h-24c-0.736 0-1.333 0.597-1.333 1.333s0.597 1.333 1.333 1.333zM4 25.333h24c0.736 0 1.333-0.597 1.333-1.333s-0.597-1.333-1.333-1.333h-24c-0.736 0-1.333 0.597-1.333 1.333s0.597 1.333 1.333 1.333z"></path>
</symbol>
<symbol id="info-icon" viewBox="0 0 32 32">
<title>info</title>
<path d="M16 0.64c-8.485 0-15.362 6.877-15.362 15.36 0 8.485 6.877 15.362 15.362 15.362 8.482 0 15.36-6.877 15.36-15.362 0-8.483-6.878-15.36-15.36-15.36zM17.434 6.186c1.498 0 1.938 0.869 1.938 1.862 0 1.24-0.992 2.387-2.686 2.387-1.418 0-2.093-0.712-2.051-1.891 0-0.994 0.83-2.358 2.8-2.358zM13.597 25.2c-1.024 0-1.771-0.622-1.056-3.35l1.173-4.84c0.203-0.774 0.237-1.085 0-1.085-0.306 0-1.635 0.534-2.419 1.062l-0.51-0.837c2.488-2.078 5.349-3.298 6.573-3.298 1.024 0 1.194 1.21 0.683 3.072l-1.344 5.088c-0.238 0.899-0.136 1.21 0.102 1.21 0.307 0 1.312-0.371 2.301-1.15l0.579 0.778c-2.421 2.419-5.059 3.35-6.082 3.35z"></path>
</symbol>
<symbol id="google-icon" viewBox="0 0 32 32">
<title>google</title>
<path d="M3.182 8.942c0 2.39 0.798 4.115 2.371 5.128 1.29 0.832 2.784 0.957 3.562 0.957 0.189 0 0.341-0.010 0.446-0.016 0 0-0.246 1.606 0.944 3.194h-0.054c-2.062 0-8.789 0.43-8.789 5.963 0 5.626 6.178 5.912 7.418 5.912 0.098 0 0.155-0.003 0.155-0.003 0.013 0 0.101 0.003 0.253 0.003 0.795 0 2.851-0.099 4.76-1.029 2.477-1.2 3.733-3.294 3.733-6.216 0-2.822-1.914-4.502-3.31-5.731-0.853-0.75-1.59-1.397-1.59-2.026 0-0.64 0.539-1.122 1.219-1.731 1.102-0.984 2.142-2.387 2.142-5.040 0-2.331-0.302-3.898-2.166-4.891 0.194-0.099 0.882-0.171 1.221-0.219 1.010-0.138 2.486-0.294 2.486-1.118v-0.158h-7.358c-0.074 0.003-7.442 0.275-7.442 7.022zM15.061 23.363c0.141 2.25-1.784 3.909-4.675 4.118-2.936 0.216-5.352-1.106-5.493-3.354-0.069-1.082 0.406-2.138 1.336-2.981 0.942-0.853 2.237-1.381 3.645-1.485 0.166-0.010 0.331-0.019 0.496-0.019 2.718 0.002 4.558 1.598 4.691 3.72zM13.139 7.402c0.722 2.541-0.368 5.194-2.106 5.685-0.2 0.056-0.405 0.083-0.614 0.083-1.59 0-3.166-1.61-3.752-3.829-0.326-1.242-0.299-2.333 0.075-3.379 0.366-1.032 1.029-1.725 1.861-1.96 0.2-0.056 0.406-0.085 0.616-0.085 1.92 0 3.155 0.797 3.92 3.485zM25.6 12.8v-4.8h-3.2v4.8h-4.8v3.2h4.8v4.8h3.2v-4.8h4.8v-3.2h-4.8z"></path>
</symbol>
</defs>
</svg>
